<?xml version="1.0" encoding="UTF-8"?>
<svg id="Capa_1" data-name="Capa 1" xmlns="http://www.w3.org/2000/svg" viewBox="0 0 19 19">
  <defs>
    <style>
      .cls-1 {
        fill: #fff;
        fill-rule: evenodd;
        stroke: #fff;
        stroke-miterlimit: 10;
      }
    </style>
  </defs>
  <path class="cls-1" d="M15.5,16.5H3.5c-.55,0-1-.45-1-1V3.5c0-.55,.45-1,1-1h5c.55,0,1-.45,1-1s-.45-1-1-1H2.5C1.39,.5,.5,1.4,.5,2.5v14c0,1.1,.9,2,2,2h14c1.1,0,2-.9,2-2v-6c0-.55-.45-1-1-1s-1,.45-1,1v5c0,.55-.45,1-1,1Z"/>
  <path class="cls-1" d="M13.76,1.18c0,.37,.3,.68,.68,.68h1.75l-6.18,6.18c-.26,.26-.26,.69,0,.95s.69,.26,.95,0l6.18-6.18v1.75c0,.37,.3,.68,.68,.68s.68-.3,.68-.68V1.18c0-.37-.3-.68-.68-.68h-3.39c-.37,0-.68,.3-.68,.68Z"/>
</svg>